<svg height="13" viewBox="0 0 20 20" width="13" xmlns="http://www.w3.org/2000/svg"><path d="m843.319857 54.9056439 5.38725 5.3872493c.390524.3905243.390524 1.0236893 0 1.4142136-.390525.3905243-1.023689.3905243-1.414214 0l-5.387249-5.3872494c-1.354684 1.053061-3.056933 1.6801426-4.905644 1.6801426-4.418278 0-8-3.581722-8-8s3.581722-8 8-8 8 3.581722 8 8c0 1.8487115-.627082 3.5509601-1.680143 4.9056439zm-6.319857 1.0943561c3.313708 0 6-2.6862915 6-6s-2.686292-6-6-6-6 2.6862915-6 6 2.686292 6 6 6z" fill="#748294" transform="translate(-829 -42)"/></svg>